<?xml version="1.0" encoding="utf-8"?>
<!-- Generator: Adobe Illustrator 23.0.6, SVG Export Plug-In . SVG Version: 6.00 Build 0)  -->
<svg version="1.1" id="Capa_1" xmlns="http://www.w3.org/2000/svg" xmlns:xlink="http://www.w3.org/1999/xlink" x="0px" y="0px"
	 viewBox="0 0 512 512" style="enable-background:new 0 0 512 512;" xml:space="preserve">
<style type="text/css">
	.st0{stroke:#FFFFFF;stroke-width:5;stroke-miterlimit:10;}
</style>
<g>
	<g>
		<path class="st0" d="M496.6,37.5c0-20.7-16.8-37.5-37.5-37.5H383c-16.5,0-30,13.5-30,30s13.5,30,30,30h11.9l-79.6,79.6
			c-17.9-10.5-38.3-16.1-59.3-16.1c-21,0-41.3,5.5-59.3,16.1l-13.4-13.4l15.9-15.9c11.7-11.7,11.7-30.7,0-42.4
			c-5.7-5.7-13.2-8.8-21.2-8.8s-15.5,3.1-21.2,8.8L141,83.9L117.1,60H129c16.5,0,30-13.5,30-30S145.5,0,129,0H52.9
			C32.3,0,15.4,16.8,15.4,37.5l0,76.8c0,16.5,13.5,30,30,30s30-13.5,30-30l0-11.9l23.5,23.5L83,141.8c-11.7,11.7-11.7,30.7,0,42.4
			c5.7,5.7,13.2,8.8,21.2,8.8c8,0,15.5-3.1,21.2-8.8l15.9-15.9l13.5,13.5c-12.2,21.1-17.6,45.8-15.2,70.2
			c2.6,26.9,14.6,52.2,33.7,71.3c14.7,14.7,32.8,25.1,52.7,30.4v45.8h-22.5c-8,0-15.5,3.1-21.2,8.8c-5.7,5.7-8.8,13.2-8.8,21.2
			c0,16.5,13.5,30,30,30H226V482c0,16.5,13.5,30,30,30s30-13.5,30-30v-22.5h22.5c16.5,0,30-13.5,30-30c0-8-3.1-15.5-8.8-21.2
			c-5.7-5.7-13.2-8.8-21.2-8.8H286v-45.8c19.9-5.3,38-15.7,52.7-30.4c19.1-19.1,31.1-44.4,33.7-71.3c2.4-24.4-3-49.1-15.2-70.2
			l79.4-79.4l0,11.9c0,16.5,13.5,30,30,30s30-13.5,30-30L496.6,37.5z M466.6,129.3c-8.3,0-15-6.7-15-15l0-30c0-3-1.8-5.8-4.6-6.9
			c-2.8-1.2-6-0.5-8.2,1.6l-96.4,96.4c-2.5,2.5-2.9,6.4-1,9.4c26.3,40.1,20.7,93.9-13.3,127.9c-14.1,14.1-31.8,23.6-51.2,27.7
			c-3.5,0.7-6,3.8-6,7.3V407c0,4.1,3.4,7.5,7.5,7.5h30c4,0,7.8,1.6,10.6,4.4c2.8,2.8,4.4,6.6,4.4,10.6c0,8.3-6.7,15-15,15h-30
			c-4.1,0-7.5,3.4-7.5,7.5v30c0,8.3-6.7,15-15,15s-15-6.7-15-15v-30c0-4.1-3.4-7.5-7.5-7.5h-30c-8.3,0-15-6.7-15-15
			c0-4,1.6-7.8,4.4-10.6c2.8-2.8,6.6-4.4,10.6-4.4h30c4.1,0,7.5-3.4,7.5-7.5v-59.3c0-3.6-2.5-6.6-6-7.3
			c-19.4-4.1-37.1-13.6-51.2-27.7c-34-34-39.6-87.8-13.3-127.9c1.9-3,1.5-6.9-1-9.4l-23-23c-2.9-2.9-7.7-2.9-10.6,0l-21.2,21.2
			c-2.8,2.8-6.6,4.4-10.6,4.4c-4,0-7.8-1.6-10.6-4.4c-5.8-5.8-5.8-15.4,0-21.2l21.2-21.2c1.4-1.4,2.2-3.3,2.2-5.3s-0.8-3.9-2.2-5.3
			L73.2,79c-2.1-2.1-5.4-2.8-8.2-1.6c-2.8,1.2-4.6,3.9-4.6,6.9l0,30c0,8.3-6.7,15-15,15s-15-6.7-15-15l0-76.8
			C30.4,25.1,40.5,15,52.9,15H129c8.3,0,15,6.7,15,15s-6.7,15-15,15H99c-3,0-5.8,1.8-6.9,4.6c-1.2,2.8-0.5,6,1.6,8.2l42,42
			c1.4,1.4,3.3,2.2,5.3,2.2s3.9-0.8,5.3-2.2l21.2-21.2c2.8-2.8,6.6-4.4,10.6-4.4s7.8,1.6,10.6,4.4c5.8,5.8,5.8,15.4,0,21.2
			L167.5,121c-1.4,1.4-2.2,3.3-2.2,5.3c0,2,0.8,3.9,2.2,5.3l22.9,22.9c2.5,2.5,6.5,2.9,9.4,1c16.7-11,36.1-16.9,56.2-16.9
			s39.5,5.8,56.2,16.9c3,2,6.9,1.6,9.4-1l96.7-96.7c2.1-2.1,2.8-5.4,1.6-8.2c-1.2-2.8-3.9-4.6-6.9-4.6h-30c-8.3,0-15-6.7-15-15
			s6.7-15,15-15h76.1c12.4,0,22.5,10.1,22.5,22.5l0,76.8C481.6,122.6,474.8,129.3,466.6,129.3z"/>
	</g>
</g>
<path class="st0" d="M256,168.6c-11.4,0-22.6,2.7-32.7,7.9c0,0,0,0,0,0s-0.2,0.1-0.5,0.2c-0.2,0.1-0.4,0.2-0.6,0.3
	c0,0-0.1,0-0.1,0.1c-1.3,0.7-2.6,1.4-3.8,2.2c-0.3,0.2-0.5,0.4-0.8,0.6c-7.7,5-21.1,15.3-26.8,30.5c0,0,0,0,0,0
	c-4.4,9.5-6.7,19.8-6.7,30.3c0,39.7,32.3,72,72,72s72-32.3,72-72S295.7,168.6,256,168.6z M256,297.6c-31.4,0-57-25.6-57-57
	c0-10.6,2.9-20.9,8.4-29.8c0.2-0.3,0.3-0.6,0.5-0.9c3.9-6.1,12.8-16.8,29.8-23.2c5.9-2,12.1-3,18.3-3c31.4,0,57,25.6,57,57
	S287.4,297.6,256,297.6z"/>
</svg>
