<?xml version="1.0" encoding="utf-8"?>
<!-- Generator: Adobe Illustrator 23.0.6, SVG Export Plug-In . SVG Version: 6.00 Build 0)  -->
<svg version="1.1" id="Capa_1" xmlns="http://www.w3.org/2000/svg" xmlns:xlink="http://www.w3.org/1999/xlink" x="0px" y="0px"
	 viewBox="0 0 512 512" style="enable-background:new 0 0 512 512;" xml:space="preserve">
<style type="text/css">
	.st0{fill:#00D100;}
</style>
<path class="st0" d="M496.6,37.5c0-20.7-16.8-37.5-37.5-37.5H383c-16.5,0-30,13.5-30,30s13.5,30,30,30h11.9l-79.6,79.6
	c-17.9-10.5-38.3-16.1-59.3-16.1c-21,0-41.3,5.5-59.3,16.1l-13.4-13.4l15.9-15.9c11.7-11.7,11.7-30.7,0-42.4
	c-5.7-5.7-13.2-8.8-21.2-8.8s-15.5,3.1-21.2,8.8L141,83.9L117.1,60H129c16.5,0,30-13.5,30-30S145.5,0,129,0H52.9
	C32.3,0,15.4,16.8,15.4,37.5l0,76.8c0,16.5,13.5,30,30,30s30-13.5,30-30l0-11.9l23.5,23.5L83,141.8c-11.7,11.7-11.7,30.7,0,42.4
	c5.7,5.7,13.2,8.8,21.2,8.8c8,0,15.5-3.1,21.2-8.8l15.9-15.9l13.5,13.5c-12.2,21.1-17.6,45.8-15.2,70.2
	c2.6,26.9,14.6,52.2,33.7,71.3c14.7,14.7,32.8,25.1,52.7,30.4v45.8h-22.5c-8,0-15.5,3.1-21.2,8.8c-5.7,5.7-8.8,13.2-8.8,21.2
	c0,16.5,13.5,30,30,30H226V482c0,16.5,13.5,30,30,30s30-13.5,30-30v-22.5h22.5c16.5,0,30-13.5,30-30c0-8-3.1-15.5-8.8-21.2
	c-5.7-5.7-13.2-8.8-21.2-8.8H286v-45.8c19.9-5.3,38-15.7,52.7-30.4c19.1-19.1,31.1-44.4,33.7-71.3c2.4-24.4-3-49.1-15.2-70.2
	l79.4-79.4l0,11.9c0,16.5,13.5,30,30,30s30-13.5,30-30L496.6,37.5z M313,240.6c0,31.4-25.6,57-57,57s-57-25.6-57-57
	c0-8.9,2.1-17.6,6-25.5c0.7-1.1,1.6-2.6,2.4-4.3c0.2-0.3,0.4-0.6,0.5-1c6.3-10.8,13.1-14.8,17.1-17.2c0.4-0.2,0.8-0.3,1.2-0.6
	c9-5.5,19.3-8.4,29.8-8.4C287.4,183.6,313,209.1,313,240.6z"/>
</svg>
