<svg id="Layer_1" data-name="Layer 1" xmlns="http://www.w3.org/2000/svg" viewBox="0 0 518.11 296.03"><title>Plan de travail 1</title><path d="M258.08,110.44a44.33,44.33,0,1,0,44.53,44.33A44.49,44.49,0,0,0,258.08,110.44Zm0,71.31a27,27,0,1,1,27.09-27A27.07,27.07,0,0,1,258.08,181.75Z"/><path d="M506.09,148.84S252.76,284.7,13,152.76" fill="none" stroke="#000" stroke-miterlimit="10" stroke-width="15"/><path d="M11.84,143.22s247.12-95.87,492.47,0" fill="none" stroke="#000" stroke-miterlimit="10" stroke-width="15"/><path d="M11.84,148.19S82.6,11.6,258,11.83s248.13,137,248.13,137S428,285,258.79,284.77,11.84,148.19,11.84,148.19Z" fill="none" stroke="#000" stroke-miterlimit="10" stroke-width="20"/><path d="M142.34,110.44s-25.21,38.4,6.34,91.17" fill="none" stroke="#000" stroke-miterlimit="10" stroke-width="15"/><path d="M371.37,195.76s15.28-47.36-5.21-88.35" fill="none" stroke="#000" stroke-miterlimit="10" stroke-width="15"/></svg>