<?xml version="1.0" encoding="utf-8"?>
<!-- Generator: Adobe Illustrator 23.0.6, SVG Export Plug-In . SVG Version: 6.00 Build 0)  -->
<svg version="1.1" id="Layer_1" xmlns="http://www.w3.org/2000/svg" xmlns:xlink="http://www.w3.org/1999/xlink" x="0px" y="0px"
	 viewBox="0 0 508 508" style="enable-background:new 0 0 508 508;" xml:space="preserve">
<style type="text/css">
	.st0{fill:#FF25F0;}
</style>
<path class="st0" d="M367.6,274.5c62.8-62.9,62.7-164.8,0.1-227.4c-62.8-62.8-164.6-62.8-227.4,0.1S77.6,212,140.2,274.6
	c25.4,25.4,58.9,41.5,94.4,45.8V397h-53.2c-10.6,0-19.3,8.8-19.3,19.3c0,5,2,9.8,5.7,13.5c3.6,3.6,8.5,5.7,13.5,5.7h53.2v53.2
	c0,5,2,9.8,5.7,13.5c3.6,3.6,8.5,5.7,13.5,5.7s9.8-2,13.5-5.7c3.6-3.6,5.7-8.5,5.7-13.5v-53.2h53.2c5,0,9.8-2,13.5-5.7
	c3.6-3.7,5.7-8.5,6-13.6c0-5-2-9.8-5.7-13.5c-3.6-3.6-8.5-5.7-13.5-5.7h-53.2v-76.6C308.7,316,342.2,299.9,367.6,274.5z
	 M407.6,163.9c0-0.9,0-1.9,0-2.8C407.7,162,407.6,162.9,407.6,163.9z M390.7,90.6c-11.3-22.1-27.9-41.1-48-55.4
	c7,5,13.6,10.6,19.9,16.8C374.2,63.6,383.6,76.7,390.7,90.6z M407.6,159.5c0-0.7,0-1.4,0-2.1C407.6,158,407.6,158.7,407.6,159.5z
	 M407.5,154.6c0-0.3,0-0.6,0-0.9C407.5,154,407.5,154.3,407.5,154.6z M407.3,150.3c0-0.1,0-0.2,0-0.3
	C407.3,150.1,407.3,150.2,407.3,150.3z M397.9,106.7c-0.1-0.2-0.1-0.3-0.2-0.5C397.7,106.4,397.8,106.6,397.9,106.7z M396.6,103.4
	c-0.1-0.4-0.3-0.7-0.4-1.1C396.3,102.7,396.4,103.1,396.6,103.4z M395.2,100.2c-0.2-0.6-0.5-1.1-0.7-1.7
	C394.7,99.1,395,99.6,395.2,100.2z M393.8,97c-0.3-0.8-0.7-1.5-1.1-2.3C393.1,95.4,393.5,96.2,393.8,97z M392.3,93.8
	c-0.5-0.9-0.9-1.9-1.4-2.8C391.4,91.9,391.8,92.8,392.3,93.8z M340,246.9c-6.6,6.6-13.9,12.4-21.5,17.2c-0.1,0.1-0.3,0.2-0.4,0.3
	c-0.6,0.4-1.2,0.7-1.8,1.1c-0.4,0.2-0.8,0.5-1.2,0.7c-0.3,0.2-0.7,0.4-1,0.6c-0.6,0.4-1.3,0.7-1.9,1.1c-0.1,0-0.2,0.1-0.3,0.1
	c-17.2,9.3-36.9,14.6-57.9,14.6c-67.3,0-121.8-54.5-121.8-121.8S186.7,39,254,39c67.2,0,121.7,54.5,121.8,121.6
	C375.7,191.8,363.8,223.1,340,246.9z M321.7,22.6c0.2,0.1,0.3,0.2,0.5,0.2C322,22.8,321.9,22.7,321.7,22.6z M324.7,24.2
	c0.4,0.2,0.8,0.4,1.2,0.6C325.5,24.6,325.1,24.4,324.7,24.2z M327.8,25.8c0.6,0.3,1.2,0.7,1.8,1C329,26.5,328.4,26.1,327.8,25.8z
	 M330.8,27.5c0.7,0.4,1.5,0.9,2.2,1.3C332.3,28.4,331.5,27.9,330.8,27.5z M333.8,29.3c0.9,0.5,1.7,1.1,2.6,1.6
	C335.5,30.4,334.7,29.8,333.8,29.3z M336.8,31.2c0.9,0.6,1.9,1.2,2.8,1.8C338.7,32.4,337.7,31.8,336.8,31.2z M339.8,33.1
	c1,0.7,2,1.3,2.9,2C341.7,34.5,340.8,33.8,339.8,33.1z M144.3,270.3C116,242,101.1,205.4,99.4,168.4c3.6,76.3,62.7,138,137.8,145.9
	l0,0.1C202,310.7,169.2,295.2,144.3,270.3z M269.2,314.5c-0.1,0-0.2,0-0.4,0.1l0-0.2c76.7-7.6,136.9-71.4,138.8-149.7
	c-0.9,38.3-16,76.3-45.1,105.5C337.5,295.2,304.5,310.8,269.2,314.5z"/>
</svg>
