<svg id="Layer_1" data-name="Layer 1" xmlns="http://www.w3.org/2000/svg" viewBox="0 0 508 508.4"><title>homme-selected</title><path d="M503.4,5.6c-2.8-2.8-6-5.6-14-5.6H386.6a24,24,0,0,0,0,48h41.6L321.8,153.6C286.2,126,243,110.8,199,110.8,89.4,110.8.2,200,.2,309.6S89.4,508.4,199,508.4s198.8-89.2,198.8-199.2c0-44-15.2-87.2-43.2-122.8L460.2,80v41.6a24,24,0,0,0,48,0V18C508.2,12.4,506.6,8.8,503.4,5.6ZM199,158.4c83.2,0,151.2,67.6,151.2,151.2S282.2,460.8,199,460.8c-83.6,0-151.2-68-151.2-151.2C47.8,226,115.8,158.4,199,158.4Zm20,341a191.35,191.35,0,0,1-20,1C205.94,500.21,212.59,499.87,219,499.35Z" transform="translate(-0.2 0)" fill="#0b54ff"/></svg>