<svg xmlns="http://www.w3.org/2000/svg" data-name="Calque 1" viewBox="0 0 206.2 26.51">
  <path fill="#eb3125" stroke="#eb3125" stroke-miterlimit="10" d="M166.49 7.42a5.27 5.27 0 0 0-8 0 1.37 1.37 0 0 0-.16.18l-.61.67-.58-.67-.15-.18a5.27 5.27 0 0 0-8 0 6.6 6.6 0 0 0 0 8.75l.16.17.6.67 8 8.75 8-8.75.61-.67.17-.17a6.63 6.63 0 0 0-.04-8.75zM18.75 18.52a17.65 17.65 0 0 1-2.11 1 7.54 7.54 0 0 1-2.68.42 6.28 6.28 0 0 1-4.74-1.81 7.16 7.16 0 0 1-1.76-5.18A7.58 7.58 0 0 1 9.05 7.8a5.71 5.71 0 0 1 4.56-1.82 7 7 0 0 1 2.65.47 12.42 12.42 0 0 1 2.14 1.12 4 4 0 0 0 1.16-1.16 3 3 0 0 0 .51-1.81 3.42 3.42 0 0 0-2-3A10.86 10.86 0 0 0 12.6.5a13.55 13.55 0 0 0-4.71.81 10.94 10.94 0 0 0-3.85 2.4A11.19 11.19 0 0 0 1.45 7.6a13.88 13.88 0 0 0-.95 5.32 14.27 14.27 0 0 0 1 5.58 10.65 10.65 0 0 0 2.64 3.87 10.93 10.93 0 0 0 4 2.23 15.77 15.77 0 0 0 4.87.74 10.25 10.25 0 0 0 5.36-1.11 3.15 3.15 0 0 0 1.77-2.63 4 4 0 0 0-.36-1.76 3.83 3.83 0 0 0-1.03-1.32zM58.72 15.51a2.66 2.66 0 0 0 .73-2 7.92 7.92 0 0 0-.67-3.28 7.53 7.53 0 0 0-1.9-2.63 9 9 0 0 0-2.9-1.7 10.54 10.54 0 0 0-3.73-.62 11.37 11.37 0 0 0-3.56.56A8.59 8.59 0 0 0 43.6 7.6a8.69 8.69 0 0 0-2.18 3c0 .09-.07.18-.1.27a8.83 8.83 0 0 0-1.94-2.86 9.42 9.42 0 0 0-3.19-2 11.55 11.55 0 0 0-4.13-.71 11.75 11.75 0 0 0-4.14.69 9.22 9.22 0 0 0-3.19 2 9 9 0 0 0-2.07 3.16 11.09 11.09 0 0 0-.74 4.13 11.28 11.28 0 0 0 .74 4.18 8.82 8.82 0 0 0 2.07 3.14 8.94 8.94 0 0 0 3.19 2 11.52 11.52 0 0 0 4.14.7 12.25 12.25 0 0 0 4.13-.7 8.49 8.49 0 0 0 5.25-5 8.81 8.81 0 0 0 2.26 3.16 9.46 9.46 0 0 0 3.44 1.89 13.39 13.39 0 0 0 4.23.64 20.15 20.15 0 0 0 2.9-.23 8.78 8.78 0 0 0 2.79-.89 2.85 2.85 0 0 0 1.2-4.06 3.33 3.33 0 0 0-1-1.09 9.11 9.11 0 0 1-2.3.95 10.8 10.8 0 0 1-3 .41 6.77 6.77 0 0 1-3-.64 3.2 3.2 0 0 1-1.82-1.91l9.55-1.44a3.63 3.63 0 0 0 2.03-.88zm-21.58.5l-.09.1-.36.39-4.71 5.17-4.7-5.17-.36-.39-.1-.1a3.9 3.9 0 0 1 0-5.16 3.12 3.12 0 0 1 4.71 0l.09.1.36.39.36-.39.09-.1a3.11 3.11 0 0 1 4.7 0 3.88 3.88 0 0 1 .01 5.16zm15.52-4v.05l-.17.19-2.22 2.43-2.23-2.44-.17-.19V12a1.84 1.84 0 0 1 0-2.43 1.47 1.47 0 0 1 2.21 0l.16.18.17-.18a1.47 1.47 0 0 1 2.21 0 1.84 1.84 0 0 1 .06 2.43zM80.14 6.38A2.54 2.54 0 0 0 79 5.92a8.8 8.8 0 0 0-1.53-.12 12.11 12.11 0 0 0-1.72.12 7.45 7.45 0 0 0-1.21.23v13.53a4.34 4.34 0 0 1-.88.31 5.23 5.23 0 0 1-1.45.16 3.31 3.31 0 0 1-2.24-.68 2.88 2.88 0 0 1-.77-2.26V8.89a4.24 4.24 0 0 0-.25-1.56 2.25 2.25 0 0 0-.72-1 2.54 2.54 0 0 0-1.09-.41 8.8 8.8 0 0 0-1.53-.12 12.11 12.11 0 0 0-1.72.12 7.86 7.86 0 0 0-1.22.23v11.06a8.93 8.93 0 0 0 .7 3.69 6.39 6.39 0 0 0 2 2.49 8.38 8.38 0 0 0 3 1.43 15 15 0 0 0 3.85.47 17.53 17.53 0 0 0 4.08-.45 10.33 10.33 0 0 0 3.18-1.24 3.16 3.16 0 0 0 1.66-2.95V8.89a4.24 4.24 0 0 0-.25-1.56 2.25 2.25 0 0 0-.75-.95zM97.23 6.05a5.24 5.24 0 0 0-2.94-.71 14.17 14.17 0 0 0-2.24.17 17.93 17.93 0 0 0-2.16.48 16.64 16.64 0 0 0-2 .72 6.65 6.65 0 0 0-1.52.91 3.41 3.41 0 0 0-1 1.14 3.26 3.26 0 0 0-.23 1.53v11.6a4 4 0 0 0 .25 1.56 2.25 2.25 0 0 0 .72.95 2.54 2.54 0 0 0 1.14.46 8.76 8.76 0 0 0 1.52.12 11.91 11.91 0 0 0 1.72-.12 7.4 7.4 0 0 0 1.21-.26V11.45a6.67 6.67 0 0 1 1.22-.41q.72-.18 1.53-.33a17.46 17.46 0 0 1 3.32-.31 4.29 4.29 0 0 0 .39-1 3.78 3.78 0 0 0 .16-1.06 2.61 2.61 0 0 0-1.09-2.29zM143.14 12.37a2.18 2.18 0 0 0 1.61-.6 2.68 2.68 0 0 0 .6-2 4.53 4.53 0 0 0-.21-1.41 6.48 6.48 0 0 0-.45-1.06h-5.06V4.87a2.8 2.8 0 0 0-.95-2.53 5 5 0 0 0-2.65-.6 9 9 0 0 0-1.68.14c-.53.09-.94.17-1.22.25v16.55q0 3.48 1.84 5a7.9 7.9 0 0 0 5.17 1.57 6.13 6.13 0 0 0 3.89-.93 3 3 0 0 0 1.1-2.39 2.83 2.83 0 0 0-.25-1.26 4.79 4.79 0 0 0-.6-.95 6.65 6.65 0 0 1-1.08.25 7.11 7.11 0 0 1-1.2.1 3.2 3.2 0 0 1-1.8-.43 1.59 1.59 0 0 1-.63-1.43v-5.84zM188.41 6.38a2.54 2.54 0 0 0-1.14-.46 8.76 8.76 0 0 0-1.52-.12 12.15 12.15 0 0 0-1.73.12 7.45 7.45 0 0 0-1.21.23v13.53a4.45 4.45 0 0 1-.87.31 5.33 5.33 0 0 1-1.45.16 3.34 3.34 0 0 1-2.25-.68 2.88 2.88 0 0 1-.77-2.26V8.89a4 4 0 0 0-.25-1.56 2.25 2.25 0 0 0-.72-1 2.54 2.54 0 0 0-1.14-.46 8.76 8.76 0 0 0-1.52-.12 12.15 12.15 0 0 0-1.73.12 7.45 7.45 0 0 0-1.21.23v11.11a8.94 8.94 0 0 0 .69 3.69 6.39 6.39 0 0 0 2 2.49 8.46 8.46 0 0 0 3 1.43 15 15 0 0 0 3.85.47 17.47 17.47 0 0 0 4.08-.45 10.49 10.49 0 0 0 3.24-1.24 3.17 3.17 0 0 0 1.62-2.9V8.89a4 4 0 0 0-.25-1.56 2.25 2.25 0 0 0-.72-.95zM204.69 19.72a6.65 6.65 0 0 1-1.08.25 7.11 7.11 0 0 1-1.2.1 3.2 3.2 0 0 1-1.8-.43 1.6 1.6 0 0 1-.64-1.43v-5.84h3.52a2.18 2.18 0 0 0 1.61-.6 2.68 2.68 0 0 0 .6-2 4.25 4.25 0 0 0-.22-1.41 6.54 6.54 0 0 0-.44-1.06h-5.07V4.87c0-1.29-.31-2.13-.94-2.53a5 5 0 0 0-2.65-.6 8.92 8.92 0 0 0-1.68.14c-.53.09-.94.17-1.22.25v16.55q0 3.48 1.83 5a8 8 0 0 0 5.24 1.55 6.13 6.13 0 0 0 3.89-.93 3 3 0 0 0 1.1-2.39 2.83 2.83 0 0 0-.25-1.26 4.79 4.79 0 0 0-.6-.93zM128.98 18.97c-.52-1.85-1-3.72-1.59-5.61s-1.08-3.73-1.62-5.51-1-3.34-1.51-4.68a3 3 0 0 0-1.91-1.76 9.73 9.73 0 0 0-3.42-.56 10.68 10.68 0 0 0-2.69.35 8.3 8.3 0 0 0-2 .73l-.76 2c-.32.86-.67 1.88-1.06 3l-1.24 3.58q-.66 1.89-1.23 3.69c-.39 1.2-.75 2.31-1.07 3.35s-.57 1.89-.75 2.59l-.35 1.27a4 4 0 0 0-.15 1.09 2.17 2.17 0 0 0 .94 1.87 5.07 5.07 0 0 0 2.92.68 6.65 6.65 0 0 0 1.45-.14 9.48 9.48 0 0 0 1.2-.31l.62-2.39c.21-.82.41-1.63.62-2.4h7l.69 2.67a7.39 7.39 0 0 0 .45 1.16 2.4 2.4 0 0 0 .66.81 2.85 2.85 0 0 0 1 .46 6.43 6.43 0 0 0 1.57.16 6.57 6.57 0 0 0 2.2-.33 3.2 3.2 0 0 0 1.39-.87q-.58-2.14-1.36-4.9zm-7.32-7.63a.17.17 0 0 1-.06.06l-.22.23-2.82 3.1-2.81-3.13-.22-.23-.06-.06a2.35 2.35 0 0 1 0-3.1 1.89 1.89 0 0 1 2.83 0v.07l.22.24.21-.24v-.07a1.88 1.88 0 0 1 2.82 0 2.35 2.35 0 0 1 .11 3.13z"/>
</svg>
