<?xml version="1.0" encoding="utf-8"?>
<!-- Generator: Adobe Illustrator 23.0.6, SVG Export Plug-In . SVG Version: 6.00 Build 0)  -->
<svg version="1.1" id="Calque_1" xmlns="http://www.w3.org/2000/svg" xmlns:xlink="http://www.w3.org/1999/xlink" x="0px" y="0px"
	 viewBox="0 0 200 183.2" style="enable-background:new 0 0 200 183.2;" xml:space="preserve">
<style type="text/css">
	.st0{stroke:#FFFFFF;stroke-width:2;stroke-miterlimit:10;}
	.st1{fill:#00C300;}
	.st2{stroke:#000000;stroke-miterlimit:10;}
	.st3{fill:#E2BC00;stroke:#FFFFFF;stroke-width:2;stroke-miterlimit:10;}
	.st4{fill:#003DEA;}
	.st5{fill:#D600D1;}
	.st6{fill:#ED6500;}
</style>
<path class="st0" d="M150,3.7c-0.1-2.1-1.8-3.7-3.9-3.7H137c-0.2,0-0.5,0.1-0.6,0.2c-2.8,2.5-0.9,5.6,1.7,5.6h1.2l-8.3,7.8
	c-3.8-2.1-8.5-2.1-12.3,0l-1.4-1.3l2.5-2.3c0.2-0.2,0.3-0.4,0.3-0.7c0.1-1.8-1.2-3.4-3.1-3.6h-0.2c-0.8,0-1.6,0.3-2.2,0.8L113,8.2
	l-2.5-2.3h2.3c0.2,0,0.5-0.1,0.7-0.2c2.8-2.5,0.9-5.6-1.7-5.6h-7.9c-2.1,0-3.8,1.6-3.9,3.7v8.5c0,0.2,0.1,0.4,0.2,0.6
	c2.7,2.6,6,0.9,6-1.6V10l2.4,2.3l-1.6,1.5c-1.2,1.1-1.2,2.9-0.1,4.1l0,0c0.6,0.6,1.4,1,2.3,1c0.8,0,1.6-0.3,2.2-0.9l1.7-1.5l1.4,1.3
	c-2.8,4.5-2,10.3,1.9,13.9c1.5,1.5,3.4,2.5,5.5,3V39h-2.3c-0.8,0-1.6,0.3-2.2,0.9c-0.6,0.6-0.9,1.4-0.9,2.2c0.2,1.6,1.6,2.8,3.2,2.8
	h2.3V47c0,1.7,1.4,3.1,3.1,3.1s3.1-1.4,3.1-3.1v-2.1h2.3c1.6,0,3-1.2,3.2-2.8c0-0.8-0.3-1.7-0.9-2.2c-0.6-0.6-1.4-0.9-2.2-0.9h-2.3
	v-4.5c2.1-0.5,3.9-1.6,5.5-3c2-1.8,3.2-4.3,3.5-7c0.2-2.4-0.3-4.8-1.6-6.8l8.2-7.7v1.1c0,1.5,1.2,2.9,2.7,3c1.7,0.3,3.2-0.9,3.5-2.6
	L150,3.7L150,3.7z M130.9,23.5c-0.2,3.3-3.1,5.7-6.3,5.5c-2.9-0.2-5.3-2.6-5.5-5.5c0-0.9,0.2-1.7,0.6-2.5c0.1-0.1,0.2-0.3,0.2-0.4
	c0,0,0-0.1,0.1-0.1c0.4-0.7,1-1.3,1.8-1.7h0.1c0.9-0.5,2-0.8,3.1-0.8C128.1,17.9,130.8,20.4,130.9,23.5L130.9,23.5z"/>
<path d="M99.5,0.6C99.2,0.2,98.7,0,98.2,0H87.7c-0.6,0-1.1,0.3-1.5,0.8c-0.9,1-0.8,2.5,0.2,3.4c0.4,0.4,1,0.6,1.6,0.6h4.1L81.7,15.1
	c-3.4-2.7-7.7-4.2-12.1-4.2c-14.3,0-25.1,15.5-16.5,30.5c1.3,2.3,3.2,4.2,5.5,5.6c15.1,8.6,30.6-2.2,30.6-16.5
	c0-4.4-1.5-8.6-4.2-12.1L95.3,7.9v4.4c0,0.6,0.3,1.1,0.8,1.5c1,0.8,2.6,0.7,3.4-0.3c0.3-0.4,0.5-0.9,0.5-1.4V1.8
	C100,1.3,99.8,0.9,99.5,0.6z M69.6,15.6c8.2,0,14.9,6.7,14.9,14.9s-6.7,14.9-14.9,14.9s-14.8-6.6-14.9-14.8
	C54.7,22.2,61.4,15.6,69.6,15.6z M71.6,49.1c-0.7,0.1-1.3,0.1-2,0.1C70.3,49.2,70.9,49.2,71.6,49.1z M36.2,27
	c6.2-6.2,6.2-16.2,0-22.4S20-1.6,13.8,4.6s-6.2,16.2,0,22.4c2.5,2.5,5.8,4.1,9.3,4.5V39H18c-1,0-1.9,0.8-1.9,1.9
	c0,0.5,0.2,1,0.5,1.3c0.3,0.4,0.8,0.6,1.3,0.6H23v5.3c0,0.5,0.2,1,0.6,1.3c0.7,0.7,1.8,0.8,2.5,0.1l0.1-0.1c0.4-0.4,0.5-0.8,0.5-1.3
	v-5.3H32c0.5-0.1,0.9-0.3,1.3-0.6c0.4-0.4,0.6-0.8,0.6-1.3s-0.2-1-0.6-1.3c-0.4-0.3-0.8-0.5-1.3-0.5h-5.2v-7.5
	C30.4,31,33.6,29.5,36.2,27z M40,16.1v-0.3C40.1,15.9,40.1,16,40,16.1z M38.4,8.9c-1.1-2.2-2.7-4-4.7-5.4c0.7,0.5,1.4,1,2,1.7
	C36.8,6.3,37.7,7.5,38.4,8.9z M39,10.1V10V10.1z M38.9,9.8c0-0.1,0-0.1-0.1-0.2S38.8,9.8,38.9,9.8z M38.7,9.5c0-0.1-0.1-0.1-0.1-0.2
	C38.7,9.4,38.7,9.4,38.7,9.5z M38.6,9.2c0-0.1-0.1-0.2-0.1-0.3C38.5,9,38.5,9.1,38.6,9.2z M33.4,24.2c-0.6,0.6-1.3,1.2-2.1,1.7
	L31.2,26L31,26.1l-0.1,0.1l-0.2,0.1c-5.8,3.2-13.1,1-16.3-4.8s-1-13.1,4.8-16.3s13.1-1,16.3,4.8C38.1,14.6,37.3,20.4,33.4,24.2z
	 M31.9,2.4L31.9,2.4C32,2.5,31.9,2.4,31.9,2.4z M32.2,2.5l0.2,0.1L32.2,2.5z M32.5,2.7l0.2,0.1L32.5,2.7z M32.8,2.9
	C32.9,2.9,33,3,33.1,3C33,3,32.9,2.9,32.8,2.9z M33.1,3l0.3,0.2L33.1,3z M33.4,3.2l0.3,0.2C33.6,3.4,33.5,3.3,33.4,3.2z M14.2,26.5
	c-2.7-2.7-4.2-6.2-4.4-10C10.2,24,15.9,30,23.3,30.8C19.9,30.5,16.7,29,14.2,26.5z M26.5,30.9c7.6-0.8,13.4-7.1,13.6-14.7
	C40,23.8,34.1,30.1,26.5,30.9z"/>
<path class="st1" d="M175,0c-13.8,0-25,11.2-25,25s11.2,25,25,25s25-11.2,25-25S188.8,0,175,0z M187.5,9.4l-12,32.2
	c-0.3,0.7-1,1.2-1.8,1.2H173c-0.8,0-1.5-0.5-1.8-1.2L166,28.4c-0.3-0.8-1-1.3-1.8-1.3H163c0,0-1.9-0.4-1.9-1.5S163,24,163,24h4.2
	c0.8,0,1.6,0.5,1.9,1.3l2.4,6.3c1.9,4.5,1.9,4.5,3.6,0l8.6-23.5c0.3-0.8,1-1.3,1.9-1.3h0.2c1,0,1.9,0.8,1.9,1.8
	C187.6,8.9,187.6,9.2,187.5,9.4L187.5,9.4z"/>
<path d="M49.2,122.7c-2.8-3.6-6.4-6.6-10.5-8.7s-8.7-3.2-13.3-3.2h-0.8c-4.6,0-9.2,1.1-13.3,3.2s-7.7,5-10.5,8.7
	c-1.1,1.4-1.1,3.3,0,4.7c2.8,3.6,6.4,6.6,10.5,8.7c4.1,2.1,8.7,3.2,13.3,3.2h0.8c4.6,0,9.2-1.1,13.3-3.2c4.1-2.1,7.7-5,10.5-8.6
	c1.5-1.5,1.9-3.5,0.4-5C49.6,122.3,49.6,122.3,49.2,122.7z M12.2,134.1c-3.8-1.9-7.2-4.6-9.8-8c-0.5-0.6-0.5-1.6,0-2.2
	c2.6-3.4,6-6.1,9.8-8c1.1-0.5,2.2-1,3.3-1.4c-5.8,5.2-6.3,14.2-1.1,20c0.3,0.4,0.7,0.8,1.1,1.1C14.4,135.2,13.3,134.7,12.2,134.1
	L12.2,134.1z M25,137.1c-6.7,0-12.1-5.5-12.1-12.2s5.4-12.2,12.1-12.2s12.1,5.4,12.1,12.2C37.1,131.7,31.7,137.1,25,137.1z
	 M47.5,126.1c-2.6,3.4-6,6.1-9.8,8c-1.1,0.5-2.2,1-3.3,1.4c5.8-5.2,6.3-14.2,1.1-20c-0.3-0.4-0.7-0.7-1.1-1.1
	c1.1,0.4,2.2,0.9,3.3,1.4c3.8,1.9,7.2,4.6,9.8,8C48.1,124.5,48.1,125.4,47.5,126.1z"/>
<path d="M25,119.8c-2.9,0-5.2,2.3-5.2,5.2c0,2.9,2.3,5.2,5.2,5.2s5.2-2.3,5.2-5.2C30.2,122.1,27.9,119.8,25,119.8z M25,128.2
	c-1.7,0-3.2-1.4-3.2-3.2c0-1.7,1.4-3.2,3.2-3.2s3.2,1.4,3.2,3.2C28.2,126.7,26.7,128.2,25,128.2z"/>
<path class="st2" d="M99.5,123c-2.6-4.5-6.4-8.1-10.9-10.6l6.1-6.1c0.2-0.3,0.1-0.8-0.2-1c-0.3-0.2-0.6-0.1-0.8,0l-22.5,22.4
	c-1.6-2.1-1.1-5,0.9-6.6c0.1,0,0.1-0.1,0.2-0.1c0.8-0.6,1.8-0.9,2.8-0.9c0.5,0,0.9,0.1,1.4,0.2c0.4,0.1,0.8-0.1,0.9-0.5
	s-0.1-0.8-0.5-0.9c-0.6-0.2-1.2-0.3-1.8-0.3c-3.5,0-6.3,2.8-6.4,6.3c0,1.4,0.5,2.8,1.4,3.9l-2.3,2.3c-3.5-4-3.2-10.1,0.8-13.6
	c3-2.7,7.4-3.2,11-1.3c0.4,0.2,0.8,0.1,1-0.3s0-0.8-0.3-1c-5.4-2.8-12.1-0.7-15,4.7c-2.1,4-1.5,9,1.5,12.4l-4.1,4.1
	c-4.5-2.3-8.2-5.8-10.7-10.2c-0.4-0.7-0.4-1.6,0-2.4c4.8-8.2,13.7-13.3,23.2-13.2c2.9,0,5.8,0.5,8.5,1.4c0.4,0.1,0.8-0.1,0.9-0.5
	s-0.1-0.8-0.5-0.9c-2.9-0.9-5.9-1.4-9-1.4c-10.1-0.1-19.4,5.2-24.5,13.9c-0.7,1.2-0.7,2.7,0,3.9c2.6,4.5,6.4,8.1,10.9,10.6l-6.1,6.1
	c-0.3,0.3-0.3,0.8,0,1c0.3,0.3,0.7,0.3,1,0l22.5-22.5c1.6,2.1,1.1,5-0.9,6.6c-0.1,0-0.1,0.1-0.2,0.1c-0.8,0.6-1.8,0.9-2.8,0.9
	c-0.5,0-0.9-0.1-1.4-0.2c-0.4-0.1-0.8,0.1-0.9,0.5s0.1,0.8,0.5,0.9c0.6,0.2,1.2,0.3,1.8,0.3c3.5,0,6.3-2.8,6.4-6.3
	c0-1.4-0.5-2.8-1.4-3.9l2.3-2.3c3.5,4,3,10.1-1,13.5c-3,2.6-7.3,3.1-10.8,1.2c-0.4-0.2-0.8-0.1-1,0.3c-0.2,0.4,0,0.8,0.3,1
	c5.4,2.8,12.1,0.7,15-4.7c2.1-4,1.5-9-1.5-12.4l4.1-4.1c4.5,2.3,8.2,5.8,10.7,10.2c0.4,0.7,0.4,1.6,0,2.4
	c-4.8,8.2-13.7,13.3-23.2,13.2c-3.1,0-6.2-0.5-9.1-1.6c-0.4-0.1-0.8,0.1-0.9,0.5c-0.2,0.4,0,0.8,0.4,1h0.1c3.1,1.1,6.3,1.6,9.6,1.6
	c10.1,0.1,19.4-5.2,24.5-13.9C100.2,125.7,100.2,124.2,99.5,123z"/>
<path class="st3" d="M150,53.7c-0.1-2.1-1.8-3.7-3.9-3.7H137c-0.2,0-0.5,0.1-0.6,0.2c-2.8,2.5-0.9,5.6,1.7,5.6h1.2l-8.3,7.8
	c-3.8-2.1-8.5-2.1-12.3,0l-1.4-1.3l2.5-2.3c0.2-0.2,0.3-0.4,0.3-0.7c0.1-1.8-1.2-3.4-3.1-3.6h-0.2c-0.8,0-1.6,0.3-2.2,0.8l-1.7,1.6
	l-2.5-2.3h2.3c0.2,0,0.5-0.1,0.7-0.2c2.8-2.5,0.9-5.6-1.7-5.6h-7.9c-2.1,0-3.8,1.6-3.9,3.7v8.5c0,0.2,0.1,0.4,0.2,0.6
	c2.7,2.6,6,0.8,6-1.6V60l2.4,2.3l-1.6,1.5c-1.2,1.1-1.2,2.9-0.1,4.1l0,0c0.6,0.6,1.4,1,2.3,1c0.8,0,1.6-0.3,2.2-0.9l1.7-1.6l1.4,1.3
	c-2.8,4.5-2,10.3,1.9,13.9c1.5,1.5,3.4,2.5,5.5,3V89h-2.3c-0.8,0-1.6,0.3-2.2,0.9s-0.9,1.4-0.9,2.2c0.2,1.6,1.6,2.8,3.2,2.8h2.3V97
	c0,1.7,1.4,3.1,3.1,3.1s3.1-1.4,3.1-3.1v-2.1h2.3c1.6,0,3-1.2,3.2-2.8c0-0.8-0.3-1.7-0.9-2.2c-0.6-0.6-1.4-0.9-2.2-0.9h-2.3v-4.5
	c2.1-0.5,3.9-1.6,5.5-3c2-1.8,3.2-4.3,3.5-7c0.2-2.4-0.3-4.8-1.6-6.8l8.2-7.7v1c0,1.5,1.2,2.9,2.7,3c1.7,0.3,3.2-0.9,3.5-2.6
	L150,53.7L150,53.7z M130.9,73.5c-0.2,3.3-3.1,5.7-6.3,5.5c-2.9-0.2-5.3-2.6-5.5-5.5c0-0.9,0.2-1.7,0.6-2.5c0.1-0.1,0.2-0.3,0.2-0.4
	c0,0,0-0.1,0.1-0.1c0.4-0.7,1-1.3,1.8-1.7l0.1-0.1c0.9-0.5,2-0.8,3.1-0.8C128.1,67.9,130.8,70.4,130.9,73.5L130.9,73.5z"/>
<path class="st4" d="M99.5,50.6c-0.3-0.4-0.9-0.6-1.4-0.5H87.7c-0.6,0-1.1,0.3-1.5,0.8c-0.9,1-0.8,2.5,0.2,3.4
	c0.4,0.4,1,0.6,1.6,0.6h4.1L81.7,65.1c-3.4-2.7-7.7-4.2-12.1-4.2c-14.3,0-25.1,15.5-16.5,30.5c1.3,2.3,3.2,4.2,5.5,5.6
	c15.1,8.6,30.6-2.2,30.6-16.5c0-4.4-1.5-8.6-4.2-12.1l10.4-10.5v4.4c0,0.6,0.3,1.1,0.8,1.5c1,0.8,2.6,0.7,3.4-0.3
	c0.3-0.4,0.5-0.9,0.5-1.4V51.8C100,51.3,99.8,50.9,99.5,50.6z M69.6,65.6c8.2,0,14.9,6.7,14.9,14.9s-6.7,14.9-14.9,14.9
	s-14.8-6.6-14.9-14.8C54.7,72.3,61.4,65.6,69.6,65.6z M71.6,99.1c-0.7,0.1-1.3,0.1-2,0.1C70.3,99.2,70.9,99.2,71.6,99.1z"/>
<g>
	<path class="st5" d="M36.2,77c6.2-6.2,6.2-16.2,0-22.4s-16.2-6.2-22.4,0s-6.2,16.2,0,22.4c2.5,2.5,5.8,4.1,9.3,4.5V89H18
		c-1,0-1.9,0.8-1.9,1.9c0,0.5,0.2,1,0.5,1.3c0.3,0.4,0.8,0.6,1.3,0.6H23v5.3c0,0.5,0.2,1,0.6,1.3c0.7,0.7,1.8,0.8,2.5,0.1l0.1-0.1
		c0.4-0.4,0.5-0.8,0.5-1.3v-5.3H32c0.5-0.1,0.9-0.3,1.3-0.6c0.4-0.4,0.6-0.8,0.6-1.3s-0.2-1-0.6-1.3c-0.4-0.3-0.8-0.5-1.3-0.5h-5.2
		v-7.6C30.3,81.1,33.7,79.5,36.2,77z M40,66.2v-0.3C40.1,66,40.1,66,40,66.2z M38.4,59c-1.1-2.2-2.7-4-4.7-5.4c0.7,0.5,1.4,1,2,1.7
		C36.8,56.3,37.7,57.5,38.4,59z M39,60.2L39,60.2L39,60.2z M38.9,59.9c0-0.1,0-0.1-0.1-0.2S38.8,59.8,38.9,59.9z M38.7,59.5
		c0-0.1-0.1-0.1-0.1-0.2C38.7,59.4,38.7,59.5,38.7,59.5z M38.6,59.2c0-0.1-0.1-0.2-0.1-0.3C38.5,59,38.5,59.1,38.6,59.2z M33.4,74.2
		c-0.6,0.6-1.3,1.2-2.1,1.7L31.2,76L31,76.1l-0.1,0.1l-0.2,0.1c-5.8,3.2-13.1,1-16.3-4.8s-1-13.1,4.8-16.3s13.1-1,16.3,4.8
		C38.1,64.6,37.3,70.4,33.4,74.2L33.4,74.2z M31.9,52.4L31.9,52.4C32,52.5,31.9,52.4,31.9,52.4z M32.2,52.5l0.2,0.1L32.2,52.5z
		 M32.5,52.7l0.2,0.1L32.5,52.7z M32.8,52.9c0.1,0,0.2,0.1,0.2,0.1S32.9,52.9,32.8,52.9z M33.1,53.1l0.3,0.2L33.1,53.1z M33.4,53.3
		l0.3,0.2C33.6,53.4,33.5,53.3,33.4,53.3z M14.2,76.6c-2.7-2.7-4.2-6.2-4.4-10c0.4,7.5,6.1,13.5,13.5,14.3
		C19.9,80.5,16.7,79,14.2,76.6z M26.5,80.9c7.6-0.8,13.4-7.1,13.6-14.7C40,73.8,34.1,80.1,26.5,80.9z"/>
</g>
<path class="st6" d="M175,50c-13.8,0-25,11.2-25,25s11.2,25,25,25s25-11.2,25-25S188.8,50,175,50z M183.1,90.8c-0.4,0-0.8-0.2-1-0.6
	l-3.7-6.4c-1.6-2.7-2.7-4.4-3.7-6.2h-0.1c-0.9,1.8-1.8,3.5-3.4,6.3l-3.5,6.4c-0.2,0.4-0.6,0.6-1,0.6h-2.1c-0.9,0-1.4-0.9-1-1.7
	l8.3-13.8c0.2-0.4,0.2-0.8,0-1.1l-8-13.4c-0.4-0.7,0.1-1.7,1-1.7h2.1c0.4,0,0.8,0.2,1,0.6l3.9,6.9c1.2,2.1,2.1,3.7,2.9,5.4h0.1
	c0.9-1.9,1.7-3.3,2.9-5.4l4-6.9c0.2-0.3,0.6-0.6,1-0.6h2.1c0.9,0,1.4,1,0.9,1.7L177.6,74c-0.2,0.4-0.2,0.8,0,1.2l8.5,14
	c0.4,0.7-0.1,1.7-1,1.7L183.1,90.8L183.1,90.8z"/>
</svg>
